<svg width="95" height="90" viewBox="0 0 95 90" fill="none" xmlns="http://www.w3.org/2000/svg">
<path d="M0.834497 35.3557C0.834497 35.2339 0.871974 35.1028 0.956298 35.0184C1.04062 34.9248 1.16242 34.8779 1.28422 34.8779H35.5104C35.6322 34.8779 35.754 34.9341 35.8383 35.0184C35.9226 35.1121 35.9695 35.2339 35.9601 35.3557C35.7072 39.7494 37.2625 40.911 36.6347 41.342C36.0726 41.7261 34.6203 37.0326 28.2117 37.0326H22.3746V72.2569C22.3746 82.843 26.3566 80.5478 26.3191 81.775C26.3003 82.4964 25.4571 81.775 18.3926 81.775C11.3282 81.775 10.4849 82.4964 10.4662 81.775C10.4287 80.5478 14.4107 82.8524 14.4107 72.2382V37.0326H8.57357C2.16494 37.0326 0.712695 41.7354 0.150535 41.342C-0.47721 40.911 1.0781 39.7494 0.815758 35.3557H0.834497Z" fill="#F8C8D0"/>
<path d="M31.5284 81.3723V58.4577C31.5284 49.6142 28.2117 51.5347 28.2398 50.5135C28.2585 49.914 28.9612 50.5135 34.8452 50.5135H38.1619C51.635 50.5135 56.6195 55.7878 56.6195 61.5399C56.6195 65.2028 54.5957 68.6691 49.6487 70.702L57.5939 81.3723C61.0793 86.047 62.213 87.3211 65.2299 88.9418C65.4079 89.0355 65.5204 89.1291 65.511 89.3259C65.4923 89.9254 64.7896 89.3259 58.9056 89.3259H55.4296C55.3078 89.3259 55.1954 89.2697 55.1298 89.176L42.603 72.3508C41.1226 72.5006 39.6423 72.5756 38.1619 72.5662V81.3723C38.1619 90.2159 41.4787 88.2954 41.4506 89.3259C41.4318 89.9254 40.7385 89.3259 34.8452 89.3259C28.9519 89.3259 28.2585 89.9254 28.2398 89.3259C28.2117 88.3047 31.5284 90.2252 31.5284 81.3817V81.3723ZM38.1619 71.4795C47.5687 71.4795 49.986 66.964 49.986 61.5305C49.986 56.097 47.5687 51.5815 38.1619 51.5815V71.4795Z" fill="#F8C8D0"/>
<path d="M86.161 13.2189C85.7488 10.6988 85.0836 8.05701 83.903 5.77118C83.2284 4.45963 81.7762 4.29101 80.4364 3.99123C79.031 3.67271 77.5975 3.46661 76.1639 3.34482C71.3481 2.96073 66.4854 3.86008 62.0725 5.80866C54.6894 9.05941 48.9554 15.5047 46.3695 23.121C45.0578 26.9807 44.5893 31.1683 45.0109 35.2154C45.2826 37.7916 45.8448 40.3116 46.7817 42.7286C47.2596 43.9559 47.5687 45.2206 48.9179 45.6796C50.2671 46.1386 51.6725 46.4103 53.0592 46.6164C62.11 47.9467 71.4043 44.9864 77.916 38.5317C84.4277 32.077 87.529 22.4746 86.161 13.2189C86.0205 12.2821 84.8306 11.7575 83.9967 11.9917C82.9942 12.2727 82.6288 13.2095 82.7693 14.1557C84.6713 26.9714 76.2483 39.4872 63.7215 42.663C59.0649 43.8434 54.2303 43.6467 49.6581 42.2321L50.7075 43.0378C47.5313 36.1053 47.5969 27.8707 51.0167 21.0413C54.1741 14.7365 59.8145 9.88382 66.5885 7.86029C71.5636 6.38012 76.8011 6.45506 81.7574 7.98207L80.7081 7.1764C81.72 9.39666 82.3852 11.7481 82.7787 14.1463C82.9286 15.0831 84.0998 15.6078 84.943 15.3736C85.9362 15.0925 86.3203 14.1557 86.1704 13.2095L86.161 13.2189Z" fill="#F8C8D0"/>
<path d="M90.7052 63.9473C91.8295 62.9917 92.9257 61.8957 93.7314 60.6497C94.6684 59.1976 93.7315 57.3896 93.1037 55.9562C91.9606 53.3613 90.1524 51.0661 87.9225 49.3236C83.903 46.1946 78.7218 45.0049 73.7373 45.9885C71.2825 46.4663 68.9215 47.5436 66.9164 49.0332C65.7453 49.9044 64.6865 50.8974 63.7683 52.031C63.2624 52.6586 62.5503 53.38 62.5503 54.2325C62.5503 54.982 62.9157 55.8719 63.1781 56.5652C65.0988 61.7458 69.3524 65.8022 74.6649 67.348C80.2865 68.9874 86.2172 67.5915 90.7239 63.9473C91.4641 63.3477 91.3423 62.0924 90.7239 61.4647C90.0025 60.7247 88.9718 60.8745 88.241 61.4647C84.765 64.2752 80.0429 65.212 75.7517 64.0035C70.8609 62.6264 67.2162 58.6637 66.0076 53.7641L65.8296 55.1131C68.8652 50.7757 74.2526 48.4242 79.4901 49.3142C85.0554 50.2604 89.4122 54.448 90.7614 59.9003L90.9394 58.5512C90.1711 59.6473 89.2623 60.5935 88.241 61.4647C86.5171 62.9262 89.0093 65.3994 90.7239 63.9473H90.7052Z" fill="#F8C8D0"/>
<path d="M37.5436 1.52731C36.2974 0.890271 34.9576 0.328193 33.5803 0.047148C32.0438 -0.262002 30.8538 1.01207 29.8513 2.0332C28.0243 3.90683 26.6564 6.24887 25.9349 8.75954C24.6982 13.097 25.4103 17.9497 27.8931 21.7157C29.1674 23.6456 30.8445 25.2944 32.8027 26.5122C33.9457 27.2242 35.2012 27.7863 36.4848 28.1798C37.1688 28.3952 38.0308 28.7231 38.7428 28.5264C39.4549 28.3297 40.1295 27.6364 40.6729 27.1493C44.2988 23.9079 46.2851 18.8772 45.7979 14.0338C45.2733 8.75017 42.2095 4.06609 37.5342 1.51794C35.5479 0.431236 33.7771 3.46653 35.7634 4.55324C39.305 6.48308 41.7879 9.92119 42.2844 13.9589C42.8091 18.287 40.9071 22.7181 37.3936 25.3131L38.7428 25.1351C34.0113 24.0859 30.2729 20.6009 29.1486 15.8513C28.0243 11.1016 29.9169 6.08024 33.7958 3.21358L32.4466 3.39158C33.6084 3.64452 34.7046 4.01925 35.754 4.55324C37.759 5.58374 39.5392 2.54844 37.5248 1.51794L37.5436 1.52731Z" fill="#F8C8D0"/>
</svg>
