<svg width="328" height="312" viewBox="0 0 328 312" fill="none" xmlns="http://www.w3.org/2000/svg">
<path d="M2.90229 122.963C2.90229 122.54 3.03263 122.084 3.3259 121.79C3.61917 121.465 4.04278 121.302 4.46639 121.302H123.501C123.925 121.302 124.349 121.497 124.642 121.79C124.935 122.116 125.098 122.54 125.065 122.963C124.186 138.244 129.595 142.284 127.412 143.783C125.456 145.119 120.406 128.796 98.1172 128.796H77.8164V251.302C77.8164 288.119 91.6653 280.137 91.5349 284.405C91.4697 286.913 88.5371 284.405 63.9676 284.405C39.3981 284.405 36.4654 286.913 36.4002 284.405C36.2699 280.137 50.1187 288.152 50.1187 251.237V128.796H29.8179C7.52943 128.796 2.47868 145.151 0.523546 143.783C-1.65968 142.284 3.74951 138.244 2.83712 122.963H2.90229Z" fill="black"/>
<path d="M109.652 283.004V203.31C109.652 172.553 98.1172 179.232 98.215 175.681C98.2801 173.595 100.724 175.681 121.188 175.681H132.723C179.581 175.681 196.917 194.024 196.917 214.029C196.917 226.768 189.878 238.824 172.673 245.894L200.305 283.004C212.427 299.262 216.37 303.693 226.863 309.33C227.482 309.656 227.873 309.982 227.84 310.666C227.775 312.751 225.331 310.666 204.867 310.666H192.778C192.355 310.666 191.964 310.47 191.735 310.144L148.169 251.628C143.02 252.149 137.872 252.41 132.723 252.377V283.004C132.723 313.761 144.258 307.082 144.161 310.666C144.095 312.751 141.684 310.666 121.188 310.666C100.691 310.666 98.2801 312.751 98.215 310.666C98.1172 307.114 109.652 313.794 109.652 283.037V283.004ZM132.723 248.598C165.439 248.598 173.846 232.894 173.846 213.996C173.846 195.099 165.439 179.395 132.723 179.395V248.598Z" fill="black"/>
<path d="M299.659 45.9736C298.225 37.2092 295.911 28.0212 291.806 20.0713C289.459 15.5099 284.409 14.9234 279.749 13.8808C274.861 12.7731 269.875 12.0563 264.89 11.6327C248.141 10.2969 231.229 13.4247 215.881 20.2016C190.204 31.5074 170.262 53.9235 161.268 80.4122C156.706 93.8358 155.077 108.4 156.543 122.475C157.488 131.435 159.443 140.199 162.702 148.605C164.364 152.874 165.439 157.272 170.131 158.868C174.823 160.465 179.711 161.41 184.534 162.127C216.012 166.753 248.336 156.457 270.983 134.009C293.63 111.56 304.416 78.1641 299.659 45.9736C299.17 42.7155 295.032 40.8909 292.131 41.7055C288.645 42.6829 287.374 45.941 287.863 49.2318C294.478 93.8033 265.183 137.332 221.616 148.377C205.421 152.483 188.607 151.798 172.705 146.879L176.355 149.681C165.309 125.57 165.537 96.9311 177.43 73.1791C188.412 51.2518 208.028 34.3746 231.588 27.337C248.89 22.1891 267.106 22.4497 284.343 27.7605L280.694 24.9585C284.213 32.6803 286.527 40.8583 287.895 49.1992C288.417 52.4573 292.49 54.2819 295.423 53.4673C298.877 52.4899 300.213 49.2317 299.691 45.941L299.659 45.9736Z" fill="black"/>
<path d="M315.463 222.402C319.373 219.079 323.185 215.267 325.988 210.933C329.246 205.883 325.988 199.595 323.805 194.61C319.829 185.585 313.54 177.602 305.785 171.542C291.806 160.66 273.786 156.522 256.45 159.943C247.913 161.605 239.701 165.352 232.728 170.532C228.655 173.562 224.973 177.016 221.779 180.958C220.02 183.141 217.543 185.65 217.543 188.615C217.543 191.222 218.814 194.317 219.726 196.728C226.406 214.745 241.2 228.853 259.676 234.229C279.228 239.931 299.854 235.076 315.528 222.402C318.102 220.317 317.678 215.951 315.528 213.768C313.019 211.194 309.434 211.715 306.893 213.768C294.803 223.542 278.38 226.801 263.456 222.598C246.447 217.808 233.771 204.026 229.567 186.986L228.948 191.678C239.506 176.592 258.242 168.415 276.458 171.51C295.814 174.8 310.966 189.364 315.658 208.327L316.277 203.635C313.605 207.447 310.445 210.738 306.893 213.768C300.897 218.851 309.565 227.452 315.528 222.402H315.463Z" fill="black"/>
<path d="M130.572 5.31181C126.238 3.09627 121.579 1.14142 116.789 0.163976C111.445 -0.911214 107.306 3.51985 103.82 7.07124C97.4654 13.5875 92.7079 21.7329 90.1988 30.4647C85.8975 45.55 88.374 62.4272 97.0092 75.5249C101.441 82.2367 107.274 87.9711 114.084 92.2067C118.059 94.6829 122.426 96.6378 126.89 98.0062C129.269 98.7556 132.267 99.8959 134.743 99.2117C137.22 98.5275 139.566 96.1164 141.456 94.4222C154.066 83.149 160.975 65.6527 159.28 48.8081C157.455 30.4322 146.8 14.1414 130.54 5.27924C123.632 1.49979 117.473 12.0562 124.381 15.8357C136.698 22.5475 145.334 34.5048 147.061 48.5475C148.885 63.6001 142.271 79.0111 130.051 88.0362L134.743 87.4172C118.288 83.7681 105.286 71.6478 101.376 55.1289C97.4654 38.6101 104.048 21.1464 117.538 11.1765L112.846 11.7955C116.886 12.6752 120.699 13.9785 124.348 15.8357C131.322 19.4196 137.513 8.86321 130.507 5.27924L130.572 5.31181Z" fill="black"/>
</svg>
